<svg width="568" height="742" viewBox="0 0 568 742" fill="none" xmlns="http://www.w3.org/2000/svg">
<path d="M567.232 715.9L528.819 741.547L525.815 695.457L567.232 715.9ZM173.843 424.119L169.86 423.754L173.843 424.119ZM525.846 717.269L525.787 721.268C516.459 721.13 507.173 720.696 497.949 719.976L498.26 715.988L498.571 712.001C507.629 712.707 516.747 713.134 525.905 713.269L525.846 717.269ZM470.829 712.981L470.269 716.942C461.025 715.635 451.863 714.043 442.806 712.179L443.612 708.261L444.419 704.343C453.314 706.174 462.311 707.737 471.389 709.021L470.829 712.981ZM416.772 701.851L415.721 705.711C406.701 703.255 397.809 700.525 389.068 697.534L390.363 693.75L391.658 689.965C400.237 692.901 408.966 695.58 417.823 697.992L416.772 701.851ZM364.559 683.977L363.021 687.669C354.373 684.066 345.907 680.2 337.644 676.084L339.428 672.503L341.211 668.923C349.311 672.958 357.614 676.749 366.098 680.284L364.559 683.977ZM315.178 659.349L313.147 662.795C305.056 658.027 297.207 653.005 289.627 647.743L291.908 644.458L294.189 641.172C301.603 646.318 309.284 651.233 317.209 655.902L315.178 659.349ZM269.868 627.843L267.334 630.938C260.055 624.978 253.095 618.775 246.483 612.344L249.272 609.477L252.06 606.609C258.504 612.877 265.294 618.928 272.402 624.748L269.868 627.843ZM230.376 589.334L227.333 591.93C221.216 584.76 215.51 577.359 210.248 569.745L213.538 567.471L216.829 565.197C221.931 572.58 227.472 579.766 233.42 586.738L230.376 589.334ZM199.118 543.954L195.596 545.85C191.132 537.558 187.181 529.059 183.779 520.374L187.504 518.915L191.228 517.456C194.509 525.833 198.324 534.04 202.64 542.058L199.118 543.954ZM179.099 492.636L175.218 493.605C172.955 484.537 171.284 475.305 170.244 465.93L174.219 465.489L178.195 465.048C179.195 474.061 180.802 482.941 182.98 491.668L179.099 492.636ZM173.039 437.918L169.041 437.819C169.156 433.157 169.428 428.468 169.86 423.754L173.843 424.119L177.827 424.485C177.411 429.022 177.149 433.533 177.038 438.017L173.039 437.918ZM173.843 424.119L169.86 423.754C170.296 418.997 170.92 414.343 171.72 409.796L175.659 410.489L179.599 411.183C178.837 415.51 178.243 419.945 177.827 424.485L173.843 424.119ZM182.745 384.011L178.989 382.636C182.292 373.614 186.349 365.138 191.049 357.23L194.488 359.274L197.926 361.317C193.477 368.804 189.633 376.833 186.502 385.386L182.745 384.011ZM210.606 337.137L207.604 334.493C213.87 327.379 220.721 320.931 228.022 315.17L230.5 318.31L232.978 321.451C226.045 326.921 219.546 333.038 213.608 339.781L210.606 337.137ZM253.412 303.291L251.518 299.768C259.827 295.3 268.47 291.58 277.299 288.633L278.566 292.427L279.832 296.222C271.432 299.025 263.21 302.564 255.307 306.814L253.412 303.291ZM305.204 286.029L304.613 282.073C313.977 280.673 323.39 280.124 332.692 280.455L332.549 284.453L332.407 288.45C323.61 288.137 314.688 288.656 305.796 289.985L305.204 286.029ZM359.694 288.137L360.637 284.25C369.846 286.483 378.763 289.692 387.206 293.913L385.417 297.491L383.628 301.069C375.751 297.13 367.404 294.123 358.752 292.025L359.694 288.137ZM408.216 312.601L410.821 309.566C417.85 315.597 424.254 322.586 429.872 330.554L426.603 332.859L423.334 335.164C418.099 327.739 412.141 321.24 405.611 315.637L408.216 312.601ZM439.685 356.887L443.387 355.373C446.772 363.644 449.484 372.612 451.437 382.285L447.516 383.076L443.595 383.868C441.737 374.665 439.167 366.183 435.983 358.402L439.685 356.887ZM450.8 410.288L454.796 410.1C455.011 414.672 455.079 419.368 454.995 424.189L450.996 424.12L446.996 424.05C447.077 419.395 447.011 414.87 446.805 410.476L450.8 410.288ZM450.996 424.12L454.995 424.189C454.909 429.086 454.49 433.89 453.754 438.592L449.802 437.973L445.85 437.354C446.529 433.017 446.917 428.58 446.996 424.05L450.996 424.12ZM441.814 464.341L445.448 466.012C441.486 474.631 436.381 482.737 430.301 490.275L427.188 487.764L424.074 485.253C429.768 478.194 434.512 470.647 438.18 462.67L441.814 464.341ZM407.672 507.296L410.207 510.39C403.063 516.246 395.228 521.587 386.822 526.375L384.842 522.9L382.862 519.424C390.904 514.843 398.364 509.753 405.136 504.203L407.672 507.296ZM359.806 534.829L361.272 538.551C352.712 541.922 343.764 544.806 334.515 547.171L333.524 543.296L332.533 539.42C341.47 537.135 350.101 534.352 358.34 531.107L359.806 534.829ZM306.368 548.59L306.91 552.553C297.738 553.808 288.37 554.578 278.876 554.838L278.767 550.839L278.657 546.841C287.863 546.589 296.942 545.842 305.825 544.627L306.368 548.59ZM251.076 550.122L250.76 554.109C241.506 553.377 232.199 552.152 222.901 550.411L223.638 546.479L224.374 542.548C233.39 544.236 242.416 545.424 251.391 546.134L251.076 550.122ZM196.769 539.939L195.615 543.769C186.726 541.09 177.902 537.908 169.2 534.202L170.767 530.522L172.334 526.842C180.762 530.431 189.31 533.513 197.924 536.109L196.769 539.939ZM145.969 518.282L144 521.764C135.94 517.205 128.042 512.146 120.358 506.567L122.708 503.33L125.058 500.093C132.494 505.492 140.137 510.388 147.938 514.8L145.969 518.282ZM101.29 485.846L98.5896 488.797C91.7975 482.583 85.2379 475.894 78.9518 468.715L81.9612 466.08L84.9705 463.445C91.0617 470.401 97.4148 476.879 103.99 482.894L101.29 485.846ZM64.8882 444.336L61.6165 446.637C56.3529 439.154 51.3555 431.246 46.6556 422.901L50.1409 420.938L53.6261 418.975C58.1964 427.09 63.0516 434.772 68.1599 442.035L64.8882 444.336ZM37.6992 396.19L34.0469 397.821C30.3176 389.471 26.8594 380.752 23.6955 371.656L27.4735 370.342L31.2515 369.028C34.3422 377.914 37.7169 386.421 41.3515 394.559L37.6992 396.19ZM19.4411 343.981L15.5736 345.002C13.27 336.275 11.2166 327.244 9.42974 317.902L13.3585 317.15L17.2873 316.399C19.0404 325.564 21.0533 334.416 23.3087 342.96L19.4411 343.981ZM9.02238 289.784L5.05427 290.289C3.90108 281.214 2.98292 271.875 2.31222 262.269L6.30252 261.99L10.2928 261.712C10.9532 271.172 11.8568 280.359 12.9904 289.28L9.02238 289.784ZM5.09227 234.697L1.09305 234.776C0.912906 225.67 0.942931 216.342 1.19204 206.789L5.19073 206.894L9.18935 206.998C8.9433 216.432 8.91383 225.637 9.09149 234.618L5.09227 234.697ZM6.49006 179.284L2.49915 179.015C3.10679 170 3.90019 160.799 4.88603 151.409L8.86416 151.826L12.8423 152.244C11.8666 161.537 11.0818 170.639 10.481 179.553L6.49006 179.284ZM12.2586 124.154L8.29714 123.6C9.54336 114.691 10.9555 105.622 12.5385 96.3912L16.481 97.0674L20.4234 97.7435C18.8539 106.895 17.4546 115.882 16.22 124.709L12.2586 124.154ZM21.6011 69.6275L17.6798 68.838C19.4586 60.0032 21.3881 51.0283 23.4723 41.9119L27.3717 42.8034L31.2711 43.6949C29.202 52.745 27.2872 61.6519 25.5224 70.417L21.6011 69.6275ZM33.8956 15.8062L30.0191 14.82C31.1851 10.2368 32.389 5.61959 33.631 0.968093L37.4956 2.00003L41.3602 3.03197C40.1262 7.65337 38.9303 12.2402 37.7721 16.7924L33.8956 15.8062Z" fill="white"/>
</svg>
